<?xml version="1.0" encoding="utf-8"?>
<!-- Generator: Adobe Illustrator 23.0.2, SVG Export Plug-In . SVG Version: 6.00 Build 0)  -->
<svg version="1.1" id="Layer_1" xmlns="http://www.w3.org/2000/svg" xmlns:xlink="http://www.w3.org/1999/xlink" x="0px" y="0px"
	 viewBox="0 0 86 86" style="enable-background:new 0 0 86 86;" xml:space="preserve">
<style type="text/css">
	.st0{fill:none;stroke:#000000;stroke-width:5;stroke-miterlimit:10;}
	.st1{clip-path:url(#SVGID_2_);}
	.st2{fill:#828282;}
	.st3{fill:none;stroke:#828282;stroke-width:5;stroke-miterlimit:10;}
</style>
<g>
	<g>
		<polygon points="27.69,56 21.37,56 29.05,19 35.37,19 		"/>
		<rect x="29" y="19" width="24" height="7"/>
	</g>
	<g>
		<polygon points="37.63,67 31.31,67 38.98,31 45.31,31 		"/>
		<polygon points="55.24,67 48.92,67 56.6,31 62.92,31 		"/>
		<polygon points="39,37 39,31 62.92,31 61.6,37 		"/>
		<rect x="39" y="46" width="18" height="7"/>
	</g>
	<circle class="st0" cx="42.48" cy="42.88" r="39.18"/>
</g>
<g>
	<defs>
		<rect id="SVGID_1_" x="42" y="-5" width="72" height="110"/>
	</defs>
	<clipPath id="SVGID_2_">
		<use xlink:href="#SVGID_1_"  style="overflow:visible;"/>
	</clipPath>
	<g class="st1">
		<g>
			<polygon class="st2" points="27.69,56 21.37,56 29.05,19 35.37,19 			"/>
			<polygon class="st2" points="29,26 29,19 54.89,19 53.27,26 			"/>
		</g>
		<g>
			<polygon class="st2" points="37.63,67 31.31,67 38.98,31 45.31,31 			"/>
			<polygon class="st2" points="55.24,67 48.92,67 56.6,31 62.92,31 			"/>
			<polygon class="st2" points="39,37 39,31 62.92,31 61.6,37 			"/>
			<rect x="39" y="46" class="st2" width="18" height="7"/>
		</g>
		<circle class="st3" cx="42.48" cy="42.88" r="39.18"/>
	</g>
</g>
</svg>
